Coordinates
version=1
nRows=17
nColumns=40
inDegrees=yes

Units are S.I. units (second, meters, Newtons, ...)
If the header above contains a line with 'inDegrees', this indicates whether rotational values are in degrees (yes) or radians (no).

endheader
time	pelvis_tilt	pelvis_list	pelvis_rotation	pelvis_tx	pelvis_ty	pelvis_tz	hip_flexion_r	hip_adduction_r	hip_rotation_r	knee_angle_r	knee_angle_r_beta	ankle_angle_r	subtalar_angle_r	mtp_angle_r	hip_flexion_l	hip_adduction_l	hip_rotation_l	knee_angle_l	knee_angle_l_beta	ankle_angle_l	subtalar_angle_l	mtp_angle_l	lumbar_extension	lumbar_bending	lumbar_rotation	arm_flex_r	arm_add_r	arm_rot_r	elbow_flex_r	pro_sup_r	wrist_flex_r	wrist_dev_r	arm_flex_l	arm_add_l	arm_rot_l	elbow_flex_l	pro_sup_l	wrist_flex_l	wrist_dev_l
      5.77500000	    -18.71488161	     -2.87347463	      3.34010741	     -0.47622075	      0.64868674	     -0.89536897	     82.33032072	    -18.48126899	     -4.79390189	    102.25215054	      1.78463669	     40.11596085	      0.00000000	      0.00000000	     88.64222169	    -23.92241289	     -1.09084967	    101.71498190	      1.77526133	     31.15483894	      0.00000000	      0.00000000	    -30.90913690	      0.79547248	     -1.71438362	     32.83345737	    -52.99629504	     89.74176331	    103.71316380	     88.78472199	      0.00000000	      0.00000000	     29.67682060	    -57.84669326	     89.76165982	    109.40152572	     88.79659134	      0.00000000	      0.00000000
      5.78000000	    -18.73079604	     -2.80412340	      3.33647675	     -0.47632926	      0.64865754	     -0.89546716	     82.39660160	    -18.49597528	     -4.69156800	    102.25946970	      1.78476444	     40.07171302	      0.00000000	      0.00000000	     88.60879433	    -23.90025459	     -1.18844246	    101.70176714	      1.77503069	     31.18674512	      0.00000000	      0.00000000	    -30.91541265	      0.72808273	     -1.75532754	     32.85978584	    -52.98035073	     89.74244099	    103.71171701	     88.79295597	      0.00000000	      0.00000000	     29.64963050	    -57.85522738	     89.76081131	    109.40839545	     88.79993969	      0.00000000	      0.00000000
      5.78500000	    -18.66149583	     -2.87843558	      3.40266378	     -0.47641229	      0.64877536	     -0.89556425	     82.27199376	    -18.53467681	     -4.79236419	    102.24227376	      1.78446431	     40.15908050	      0.00000000	      0.00000000	     88.59057353	    -23.82811438	     -1.08796349	    101.68858059	      1.77480054	     31.19762408	      0.00000000	      0.00000000	    -31.02825989	      0.83357412	     -1.76058701	     32.87888370	    -53.00204004	     89.74333018	    103.74476788	     88.78282716	      0.00000000	      0.00000000	     29.68852744	    -57.84966449	     89.76187840	    109.42871742	     88.77376733	      0.00000000	      0.00000000
      5.79000000	    -18.67466072	     -2.81720132	      3.37660895	     -0.47651606	      0.64880541	     -0.89560148	     82.33146682	    -18.50585463	     -4.68867921	    102.24243159	      1.78446707	     40.07852667	      0.00000000	      0.00000000	     88.56438627	    -23.83749114	     -1.16040484	    101.68513784	      1.77474046	     31.14655759	      0.00000000	      0.00000000	    -31.04606819	      0.76036404	     -1.76324942	     32.88003584	    -52.99660439	     89.74389859	    103.74552565	     88.79237813	      0.00000000	      0.00000000	     29.69890654	    -57.84579001	     89.76253737	    109.41325599	     88.77959061	      0.00000000	      0.00000000
      5.79500000	    -18.68052983	     -2.79481101	      3.37728319	     -0.47666297	      0.64892409	     -0.89567783	     82.33441465	    -18.49343835	     -4.65346618	    102.19410212	      1.78362356	     40.21792544	      0.00000000	      0.00000000	     88.52390884	    -23.80395123	     -1.20087690	    101.63559470	      1.77387576	     31.33938867	      0.00000000	      0.00000000	    -31.09041196	      0.73808828	     -1.75735827	     32.89332961	    -53.01792918	     89.74258107	    103.80728097	     88.76448389	      0.00000000	      0.00000000	     29.71120122	    -57.81262851	     89.76332474	    109.38449910	     88.75281723	      0.00000000	      0.00000000
      5.80000000	    -18.79089260	     -2.84030869	      3.40234463	     -0.47697256	      0.64882774	     -0.89571068	     82.46941150	    -18.47407417	     -4.65031996	    102.18136790	      1.78340130	     40.04407770	      0.00000000	      0.00000000	     88.70859106	    -23.74660508	     -1.11989807	    101.63401911	      1.77384827	     31.11538631	      0.00000000	      0.00000000	    -31.00522059	      0.79529976	     -1.77595743	     32.90912344	    -52.98998559	     89.74382357	    103.77734990	     88.78137839	      0.00000000	      0.00000000	     29.69529255	    -57.81622615	     89.76335710	    109.40705111	     88.79421672	      0.00000000	      0.00000000
      5.80500000	    -18.77929925	     -2.78364850	      3.40417423	     -0.47710985	      0.64897229	     -0.89576716	     82.47364385	    -18.47703640	     -4.58601993	    102.15967507	      1.78302269	     40.06552050	      0.00000000	      0.00000000	     88.64426457	    -23.70849150	     -1.18905861	    101.59519487	      1.77317065	     31.15071916	      0.00000000	      0.00000000	    -31.07215468	      0.73688643	     -1.80723633	     32.92625745	    -52.98229729	     89.74455756	    103.79182057	     88.79524800	      0.00000000	      0.00000000	     29.70547400	    -57.83025757	     89.76245009	    109.40199547	     88.79788316	      0.00000000	      0.00000000
      5.81000000	    -18.83642821	     -2.86533578	      3.44307149	     -0.47738009	      0.64896241	     -0.89577867	     82.52404002	    -18.46555151	     -4.64558991	    102.13451544	      1.78258357	     39.97842707	      0.00000000	      0.00000000	     88.77666418	    -23.64246222	     -1.06685435	    101.56667646	      1.77267291	     31.07856596	      0.00000000	      0.00000000	    -31.05636583	      0.83070385	     -1.79437504	     32.94814361	    -52.99378779	     89.74574784	    103.81175896	     88.79003164	      0.00000000	      0.00000000	     29.71406578	    -57.82045891	     89.76242373	    109.41752768	     88.80051432	      0.00000000	      0.00000000
      5.81500000	    -18.74672630	     -2.87710393	      3.47253957	     -0.47747384	      0.64916426	     -0.89586354	     82.41672159	    -18.48749003	     -4.67222246	    102.12420130	      1.78240356	     39.95639981	      0.00000000	      0.00000000	     88.69105393	    -23.60515254	     -1.05058783	    101.56004189	      1.77255712	     31.11595583	      0.00000000	      0.00000000	    -31.20558409	      0.86144340	     -1.77365510	     32.94545323	    -53.01786350	     89.74641124	    103.83453545	     88.78337785	      0.00000000	      0.00000000	     29.78271246	    -57.80761250	     89.76470247	    109.45604958	     88.78100993	      0.00000000	      0.00000000
      5.82000000	    -18.89381060	     -2.81983929	      3.44267712	     -0.47785662	      0.64917719	     -0.89588205	     82.61485959	    -18.42863132	     -4.54732953	    102.06815241	      1.78142532	     39.90561021	      0.00000000	      0.00000000	     88.79690976	    -23.58096340	     -1.13118189	    101.48942696	      1.77132466	     31.04296122	      0.00000000	      0.00000000	    -31.12924788	      0.79075017	     -1.80289440	     32.98841326	    -53.00261050	     89.74748913	    103.86238114	     88.79971290	      0.00000000	      0.00000000	     29.76541398	    -57.84397807	     89.76274060	    109.48882839	     88.79953925	      0.00000000	      0.00000000
      5.82500000	    -18.89706760	     -2.89066840	      3.46498333	     -0.47808861	      0.64931623	     -0.89590353	     82.58144921	    -18.40918931	     -4.62674994	    102.02286227	      1.78063486	     39.92428412	      0.00000000	      0.00000000	     88.84335559	    -23.53895291	     -1.03760905	    101.44966933	      1.77063075	     31.07632543	      0.00000000	      0.00000000	    -31.18584373	      0.86934887	     -1.76262194	     32.99464222	    -53.02472675	     89.74803020	    103.88223548	     88.79413221	      0.00000000	      0.00000000	     29.79501908	    -57.81006095	     89.76442213	    109.49054231	     88.78377470	      0.00000000	      0.00000000
      5.83000000	    -18.94933522	     -2.96894930	      3.46626103	     -0.47831552	      0.64932717	     -0.89586403	     82.60459875	    -18.35560622	     -4.70154191	    101.97834692	      1.77985792	     39.93204984	      0.00000000	      0.00000000	     88.97255553	    -23.53502389	     -0.92823004	    101.44585901	      1.77056425	     30.98034903	      0.00000000	      0.00000000	    -31.17966618	      0.94328927	     -1.69841296	     32.97042514	    -53.04891623	     89.74788537	    103.91653686	     88.79303176	      0.00000000	      0.00000000	     29.81964406	    -57.79474964	     89.76565873	    109.48808304	     88.79900348	      0.00000000	      0.00000000
      5.83500000	    -19.03974610	     -3.01534865	      3.46443156	     -0.47865739	      0.64940408	     -0.89585435	     82.69642378	    -18.31133799	     -4.71915785	    101.91916107	      1.77882493	     39.83592109	      0.00000000	      0.00000000	     89.09740356	    -23.50599344	     -0.87370325	    101.39847591	      1.76973726	     30.90360844	      0.00000000	      0.00000000	    -31.15503919	      0.98449739	     -1.68694156	     33.00779107	    -53.05218494	     89.74878550	    103.93303367	     88.79551582	      0.00000000	      0.00000000	     29.80604222	    -57.78530949	     89.76573428	    109.49710161	     88.80463926	      0.00000000	      0.00000000
      5.84000000	    -19.03222388	     -2.95796773	      3.48683725	     -0.47885949	      0.64980033	     -0.89603642	     82.67653719	    -18.35621488	     -4.67454579	    101.85469336	      1.77769976	     39.88934240	      0.00000000	      0.00000000	     88.99383197	    -23.42252118	     -0.95552050	    101.30705269	      1.76814162	     31.02589784	      0.00000000	      0.00000000	    -31.25918409	      0.95215714	     -1.70868280	     33.01952519	    -53.07444590	     89.74821965	    103.97833872	     88.78760372	      0.00000000	      0.00000000	     29.84503320	    -57.75021932	     89.76738556	    109.48205682	     88.79959271	      0.00000000	      0.00000000
      5.84500000	    -18.98763446	     -2.85692649	      3.45989242	     -0.47901906	      0.65017123	     -0.89613544	     82.65480905	    -18.32227649	     -4.52992823	    101.80345296	      1.77680544	     39.87883164	      0.00000000	      0.00000000	     88.85067470	    -23.42060175	     -1.10174754	    101.26012261	      1.76732254	     31.01770002	      0.00000000	      0.00000000	    -31.39440357	      0.85019299	     -1.72096147	     33.08812810	    -53.08603562	     89.74883333	    104.02092464	     88.77607255	      0.00000000	      0.00000000	     29.88683616	    -57.75823157	     89.76860980	    109.50340733	     88.78249523	      0.00000000	      0.00000000
      5.85000000	    -19.11709415	     -2.89930896	      3.50876451	     -0.47929583	      0.65022125	     -0.89626618	     82.77883278	    -18.37003013	     -4.57663992	    101.76246922	      1.77609014	     39.78050878	      0.00000000	      0.00000000	     88.99667013	    -23.31516856	     -1.04724080	    101.18383924	      1.76599114	     30.87089584	      0.00000000	      0.00000000	    -31.32741358	      0.91191201	     -1.75104485	     33.02854612	    -53.05528637	     89.75145208	    103.99623929	     88.80541889	      0.00000000	      0.00000000	     29.86664855	    -57.75007138	     89.76732445	    109.49133095	     88.80745744	      0.00000000	      0.00000000
      5.85500000	    -18.26446134	     -4.07571551	      4.12717335	     -0.47753121	      0.65199775	     -0.89596919	     81.02369840	    -18.56892250	     -6.20239706	    101.69812085	      1.77496705	     40.19019292	      0.00000000	      0.00000000	     88.80675385	    -23.20072647	      0.31004783	    101.27000506	      1.76749502	     30.90995079	      0.00000000	      0.00000000	    -32.21022439	      2.27788042	     -1.56965229	     33.00765981	    -53.02118450	     89.75039521	    103.88647417	     88.81929451	      0.00000000	      0.00000000	     29.79217422	    -57.62818798	     89.76728132	    109.30860496	     88.81900544	      0.00000000	      0.00000000
